<svg width="136" height="136" viewBox="0 0 136 136" fill="none" xmlns="http://www.w3.org/2000/svg">
<path fill-rule="evenodd" clip-rule="evenodd" d="M136 68C136 105.555 105.555 136 68 136C30.4446 136 0 105.555 0 68C0 30.4446 30.4446 0 68 0C105.555 0 136 30.4446 136 68ZM96.7212 65.0412C100.371 66.8933 100.371 72.1067 96.7212 73.9588L53.8896 95.6927C50.5634 97.3805 46.6271 94.9637 46.6271 91.2339V47.7661C46.6271 44.0363 50.5634 41.6195 53.8896 43.3073L96.7212 65.0412ZM126 68.5C126 100.256 100.256 126 68.5 126C36.7436 126 11 100.256 11 68.5C11 36.7436 36.7436 11 68.5 11C100.256 11 126 36.7436 126 68.5ZM114 68C114 93.4051 93.4051 114 68 114C42.5949 114 22 93.4051 22 68C22 42.5949 42.5949 22 68 22C93.4051 22 114 42.5949 114 68Z" fill="url(#paint0_linear)"/>
<defs>
<linearGradient id="paint0_linear" x1="-36" y1="136" x2="209" y2="11" gradientUnits="userSpaceOnUse">
<stop stop-color="#FF4782"/>
<stop offset="1" stop-color="#475BFF"/>
</linearGradient>
</defs>
</svg>
